<?xml version="1.0" encoding="utf-8"?>
<!-- Svg Vector Icons : http://www.onlinewebfonts.com/icon -->
<!DOCTYPE svg PUBLIC "-//W3C//DTD SVG 1.1//EN" "http://www.w3.org/Graphics/SVG/1.1/DTD/svg11.dtd">
<svg version="1.1" xmlns="http://www.w3.org/2000/svg" xmlns:xlink="http://www.w3.org/1999/xlink" x="0px" y="0px" viewBox="0 0 256 256" enable-background="new 0 0 256 256" xml:space="preserve">
<metadata> Svg Vector Icons : http://www.onlinewebfonts.com/icon </metadata>
<g><g><g><path fill="currentColor" d="M100.5,10.9c-16.9,2.5-34.1,9-47.4,18.1c-2.9,1.9-5.4,3.6-5.6,3.6c-0.2,0-0.1-2.1,0.1-4.8c0.4-4.8,0.3-4.9-1.6-6.8c-3-3-7.5-2.7-9.3,0.7c-1,1.9-3,25.2-2.4,27.6c0.9,3.4,2.5,3.8,16.7,5.1c13,1.2,13,1.2,14.8-0.2c3.4-2.5,3.4-7.4,0-9.6c-0.8-0.5-3.7-1.2-6.4-1.5l-4.8-0.5l3.2-2.4c8.2-6.1,21.2-12.1,32.4-15c10.4-2.7,15.6-3.3,26.3-3.2c15,0,26.6,2.3,40,8c6.1,2.5,16.5,8.4,19.9,11.2l1.9,1.6l-5.1,0.4c-4.6,0.4-5.3,0.6-6.9,2.4c-2.5,2.7-2.4,5.4,0.1,7.8c2.3,2.2,2.2,2.2,17.1,0.8c14.1-1.2,15.3-1.8,15.4-7.7c0-6.3-1.9-23.8-2.7-24.9c-2.7-3.4-6.2-3.6-9.1-0.6c-1.9,1.9-2,2.1-1.6,6.8c0.2,2.7,0.3,4.8,0.1,4.8c-0.2,0-3-1.8-6.3-4c-14.4-9.5-30.6-15.5-47.8-17.8C123.2,9.7,108.6,9.7,100.5,10.9z"/><path fill="currentColor" d="M110.1,39.9c-4,1.5-7,3.7-9.3,6.8c-4.2,5.4-4.2,5.6-4.2,44.5v35.1l-2.9,1.8c-4.3,2.8-12.3,10.5-15.6,15.1c-6.1,8.6-8.7,16.7-8.7,27.6c0,11.2,2.9,23.1,8,33.3c7.7,15.3,22.1,28.9,38,35.7c15.7,6.8,34.5,7.9,51.3,3.1c20.5-6,37.8-20.6,47.2-40.2c6.7-13.9,8.3-25.5,7.8-55.7c-0.3-19.9-0.6-21.5-5.1-26.6c-4.9-5.6-11.7-8.1-18.4-6.9c-1.8,0.3-3.8,0.8-4.3,1c-0.8,0.3-1.4-0.3-2.5-2.7c-1.8-4-5.3-7.6-9.4-9.8c-2.8-1.5-4-1.8-8.8-1.8c-4.4,0-6,0.3-8.2,1.4l-2.7,1.4l-2.3-2.7c-1.2-1.5-3.8-3.6-5.8-4.7c-3.1-1.7-4.2-1.9-9-1.9c-3,0-6.2,0.3-6.9,0.5l-1.4,0.5l-0.2-20.6c-0.2-20.4-0.2-20.7-1.8-23.9c-1.9-3.9-5.5-7.6-9.2-9.5C122.1,39.1,113.7,38.6,110.1,39.9z M122.3,53.6l2.1,2.3v51.6c0,55.1,0,55,3.1,56.7c2.7,1.4,5.7,0.8,7.5-1.3l1.7-2v-24.8c0-24.7,0-24.9,1.5-27.1c0.8-1.2,2.5-2.6,4-3.1c3.4-1.3,7.2,0,9.3,3.1c1.5,2.2,1.5,2.3,1.5,27.1v24.8l1.7,2c2.2,2.7,6,2.9,8.4,0.4c1.8-1.8,1.7,0.6,1.8-29.1c0-7.8,0.3-15.1,0.6-16.2c1.8-6.2,9.7-7.9,13.8-3l1.7,2v21c0,22.4,0.3,24.6,3.1,26.1c2.4,1.3,5.6,0.8,7.3-1c1.6-1.6,1.6-1.8,1.9-17.5l0.3-15.8l2-2c1.5-1.5,2.8-2.1,4.9-2.3c3.5-0.3,5.6,0.7,7.6,3.7l1.6,2.3l-0.3,24.3c-0.3,26.8-0.5,28.2-5,39.1c-8.2,19.5-26.5,34.2-47.6,38.2c-5.3,1-17.9,1-22.8,0c-14.9-3-28.7-11.1-37.7-22c-9-10.8-13.9-23.1-14.9-37.4c-0.5-7.2,0.7-12.8,4-19.2c2.2-4.2,9.4-12.9,10.7-12.9c0.3,0,0.6,4.2,0.6,9.5c0,11.8,0.8,13.8,6,13.9c1.8,0,2.9-0.5,4-1.6l1.6-1.6V110c0-48.9,0.1-51.9,1.2-54.4C111.9,50.2,118.4,49.3,122.3,53.6z"/></g></g></g>
</svg>